<svg width="44" height="38" viewBox="0 0 44 38" fill="none" xmlns="http://www.w3.org/2000/svg">
<path d="M18.3708 12.0561C19.407 9.09762 23.6602 9.09762 24.6964 12.0561C25.4146 14.1069 27.3603 15.5147 29.5473 15.5147H30.0802C33.0093 15.5147 34.1681 19.3072 31.7393 20.9443C29.8625 22.2094 29.0868 24.5922 29.832 26.7201C30.8183 29.5362 27.6629 31.9549 25.2486 30.3275L24.5252 29.84C22.717 28.6211 20.3502 28.6211 18.542 29.84L17.8186 30.3275C15.4043 31.9549 12.2489 29.5362 13.2352 26.7201C13.9804 24.5922 13.2047 22.2094 11.3279 20.9443C8.89911 19.3072 10.0579 15.5147 12.987 15.5147H13.5199C15.7069 15.5147 17.6526 14.1069 18.3708 12.0561Z" stroke="#00514E" stroke-width="2"/>
<path d="M24.477 21.0003C24.477 22.6022 23.1636 23.9167 21.5236 23.9167C19.8837 23.9167 18.5703 22.6022 18.5703 21.0003C18.5703 19.3985 19.8837 18.084 21.5236 18.084C23.1636 18.084 24.477 19.3985 24.477 21.0003Z" stroke="#00514E" stroke-width="2"/>
</svg>
