<svg width="23" height="25" viewBox="0 0 23 25" fill="none" xmlns="http://www.w3.org/2000/svg">
<path d="M10.402 3.96774H11.5062H12.6131M10.402 3.96774C10.0339 2.97849 9.73946 1 11.5062 1C13.273 1 12.9803 2.97849 12.6131 3.96774M10.402 3.96774C8.80785 4.0914 5.4723 5.6 4.88337 10.6452C4.63799 12.7473 3.70551 17.1742 1.93872 18.0645C1.44795 18.4355 0.613629 19.4742 1.20256 20.6613H8.931M12.6131 3.96774C16.4421 3.96774 17.8885 8.41935 18.133 10.6452C18.4275 15.0968 20.2188 17.4462 21.0777 18.0645C22.2556 18.9548 22.0592 20.1667 21.8139 20.6613H14.0841M8.931 20.6613C8.931 21.7742 9.44632 24 11.5076 24C13.5688 24 14.0841 21.7742 14.0841 20.6613M8.931 20.6613H14.0841" stroke="#00514E" stroke-width="2"/>
</svg>
