<svg width="63" height="59" viewBox="0 0 63 59" fill="none" xmlns="http://www.w3.org/2000/svg">
<path d="M26.7315 16.795C28.2863 12.3136 34.7137 12.3136 36.2685 16.795C37.2131 19.5176 39.7907 21.384 42.6855 21.384H43.3378C47.847 21.384 49.6424 27.2142 45.9143 29.7508C43.4523 31.426 42.4316 34.5587 43.4052 37.3648C44.8987 41.6695 40.0621 45.3843 36.3478 42.857L35.4378 42.2378C33.0616 40.621 29.9385 40.621 27.5622 42.2378L26.6522 42.857C22.9379 45.3843 18.1013 41.6695 19.5948 37.3648C20.5684 34.5587 19.5477 31.426 17.0857 29.7508C13.3576 27.2142 15.153 21.384 19.6622 21.384H20.3145C23.2093 21.384 25.7869 19.5176 26.7315 16.795Z" stroke="#00514E" stroke-width="2"/>
<circle cx="31.5" cy="29.5" r="4.5" stroke="#00514E" stroke-width="2"/>
</svg>
